#Comment line ignore any data following # character 
#Hierarchical Translation and Rotation (.htr) file 
[Header]	
#Header keywords are followed by a single value 
FileType HTR		#Single word string
DataType HTRS		#Translation followed by rotation and scale data
FileVersion 1		#integer
NumSegments 84		#integer
NumFrames 2		#integer
DataFrameRate 30		#integer, data frame rate in this file
EulerRotationOrder ZYX
CalibrationUnits mm
RotationUnits Degrees
GlobalAxisofGravity Y
BoneLengthAxis Y
ScaleFactor 1.00
[SegmentNames&Hierarchy]
#CHILD	PARENT
MASTER GLOBAL
root MASTER
chest root
L_mid_tent01 root
R_mid_tent01 root
spine01 root
Bip01_Neck chest
L_humerus chest
R_humerus chest
weapon_bone chest
Bip01_Head Bip01_Neck
eye_left_bone Bip01_Head
eye_right_bone Bip01_Head
L_forearm L_humerus
L_front_hand L_forearm
L_weapon_bone L_forearm
L_front_hand01_01 L_front_hand
L_front_hand02_01 L_front_hand
L_front_hand03_01 L_front_hand
L_front_hand01_02 L_front_hand01_01
L_front_hand02_02 L_front_hand02_01
L_front_hand03_02 L_front_hand03_01
R_forearm R_humerus
R_front_hand R_forearm
R_weapon_bone R_forearm
R_front_hand01_01 R_front_hand
R_front_hand02_01 R_front_hand
R_front_hand03_01 R_front_hand
R_front_hand01_02 R_front_hand01_01
R_front_hand02_02 R_front_hand02_01
R_front_hand03_02 R_front_hand03_01
null_rope01_connect L_mid_tent01
Rope1_Seg01 null_rope01_connect
Rope1_Seg02 Rope1_Seg01
Rope1_Seg03 Rope1_Seg02
Rope1_Seg04 Rope1_Seg03
Rope1_Seg05 Rope1_Seg04
Rope1_Seg06 Rope1_Seg05
Rope1_Seg07 Rope1_Seg06
Rope1_Seg09 Rope1_Seg07
L_mid_hand01 Rope1_Seg09
L_mid_hand02 Rope1_Seg09
L_mid_hand03 Rope1_Seg09
null_rope02_connect R_mid_tent01
Rope2_Seg01 null_rope02_connect
Rope2_Seg02 Rope2_Seg01
Rope2_Seg03 Rope2_Seg02
Rope2_Seg04 Rope2_Seg03
Rope2_Seg05 Rope2_Seg04
Rope2_Seg06 Rope2_Seg05
Rope2_Seg07 Rope2_Seg06
Rope2_Seg09 Rope2_Seg07
R_mid_hand01 Rope2_Seg09
R_mid_hand02 Rope2_Seg09
R_mid_hand03 Rope2_Seg09
spine02 spine01
spine03 spine02
pelvis spine03
null_rope03_connect pelvis
null_rope04_connect pelvis
Rope3_Seg01 null_rope03_connect
Rope3_Seg02 Rope3_Seg01
Rope3_Seg03 Rope3_Seg02
Rope3_Seg04 Rope3_Seg03
Rope3_Seg05 Rope3_Seg04
Rope3_Seg06 Rope3_Seg05
Rope3_Seg07 Rope3_Seg06
Rope3_Seg08 Rope3_Seg07
Rope3_Seg09 Rope3_Seg08
R_rear_hand01 Rope3_Seg09
R_rear_hand02 Rope3_Seg09
R_rear_hand03 Rope3_Seg09
Rope4_Seg01 null_rope04_connect
Rope4_Seg02 Rope4_Seg01
Rope4_Seg03 Rope4_Seg02
Rope4_Seg04 Rope4_Seg03
Rope4_Seg05 Rope4_Seg04
Rope4_Seg06 Rope4_Seg05
Rope4_Seg07 Rope4_Seg06
Rope4_Seg08 Rope4_Seg07
Rope4_Seg09 Rope4_Seg08
L_rear_hand01 Rope4_Seg09
L_rear_hand02 Rope4_Seg09
L_rear_hand03 Rope4_Seg09
[BasePosition]
#SegmentName Tx, Ty, Tz, Rx, Ry, Rz, BoneLength
MASTER 0.000000 0.000000 0.000000 -90.000000 0.000000 0.000000 10.000000 
root 0.000000 0.000000 0.000000 0.000000 0.000000 0.000000 10.000000 
chest 0.000000 0.000000 0.000000 0.000000 0.000000 0.000000 10.000000 
L_mid_tent01 0.000000 0.000000 0.000000 0.000000 0.000000 0.000000 10.000000 
R_mid_tent01 0.000000 0.000000 0.000000 0.000000 0.000000 0.000000 10.000000 
spine01 0.000000 0.000000 0.000000 0.000000 0.000000 0.000000 10.000000 
Bip01_Neck 0.000000 0.000000 0.000000 0.000000 0.000000 0.000000 10.000000 
L_humerus 0.000000 0.000000 0.000000 0.000000 0.000000 0.000000 10.000000 
R_humerus 0.000000 0.000000 0.000000 0.000000 0.000000 0.000000 10.000000 
weapon_bone 0.000000 0.000000 0.000000 0.000000 0.000000 0.000000 10.000000 
Bip01_Head 0.000000 0.000000 0.000000 0.000000 0.000000 0.000000 10.000000 
eye_left_bone 0.000000 0.000000 0.000000 0.000000 0.000000 0.000000 10.000000 
eye_right_bone 0.000000 0.000000 0.000000 0.000000 0.000000 0.000000 10.000000 
L_forearm 0.000000 0.000000 0.000000 0.000000 0.000000 0.000000 10.000000 
L_front_hand 0.000000 0.000000 0.000000 0.000000 0.000000 0.000000 10.000000 
L_weapon_bone 0.000000 0.000000 0.000000 0.000000 0.000000 0.000000 10.000000 
L_front_hand01_01 0.000000 0.000000 0.000000 0.000000 0.000000 0.000000 10.000000 
L_front_hand02_01 0.000000 0.000000 0.000000 0.000000 0.000000 0.000000 10.000000 
L_front_hand03_01 0.000000 0.000000 0.000000 0.000000 0.000000 0.000000 10.000000 
L_front_hand01_02 0.000000 0.000000 0.000000 0.000000 0.000000 0.000000 10.000000 
L_front_hand02_02 0.000000 0.000000 0.000000 0.000000 0.000000 0.000000 10.000000 
L_front_hand03_02 0.000000 0.000000 0.000000 0.000000 0.000000 0.000000 10.000000 
R_forearm 0.000000 0.000000 0.000000 0.000000 0.000000 0.000000 10.000000 
R_front_hand 0.000000 0.000000 0.000000 0.000000 0.000000 0.000000 10.000000 
R_weapon_bone 0.000000 0.000000 0.000000 0.000000 0.000000 0.000000 10.000000 
R_front_hand01_01 0.000000 0.000000 0.000000 0.000000 0.000000 0.000000 10.000000 
R_front_hand02_01 0.000000 0.000000 0.000000 0.000000 0.000000 0.000000 10.000000 
R_front_hand03_01 0.000000 0.000000 0.000000 0.000000 0.000000 0.000000 10.000000 
R_front_hand01_02 0.000000 0.000000 0.000000 0.000000 0.000000 0.000000 10.000000 
R_front_hand02_02 0.000000 0.000000 0.000000 0.000000 0.000000 0.000000 10.000000 
R_front_hand03_02 0.000000 0.000000 0.000000 0.000000 0.000000 0.000000 10.000000 
null_rope01_connect 0.000000 0.000000 0.000000 0.000000 0.000000 0.000000 10.000000 
Rope1_Seg01 0.000000 0.000000 0.000000 0.000000 0.000000 0.000000 10.000000 
Rope1_Seg02 0.000000 0.000000 0.000000 0.000000 0.000000 0.000000 10.000000 
Rope1_Seg03 0.000000 0.000000 0.000000 0.000000 0.000000 0.000000 10.000000 
Rope1_Seg04 0.000000 0.000000 0.000000 0.000000 0.000000 0.000000 10.000000 
Rope1_Seg05 0.000000 0.000000 0.000000 0.000000 0.000000 0.000000 10.000000 
Rope1_Seg06 0.000000 0.000000 0.000000 0.000000 0.000000 0.000000 10.000000 
Rope1_Seg07 0.000000 0.000000 0.000000 0.000000 0.000000 0.000000 10.000000 
Rope1_Seg09 0.000000 0.000000 0.000000 0.000000 0.000000 0.000000 10.000000 
L_mid_hand01 0.000000 0.000000 0.000000 0.000000 0.000000 0.000000 10.000000 
L_mid_hand02 0.000000 0.000000 0.000000 0.000000 0.000000 0.000000 10.000000 
L_mid_hand03 0.000000 0.000000 0.000000 0.000000 0.000000 0.000000 10.000000 
null_rope02_connect 0.000000 0.000000 0.000000 0.000000 0.000000 0.000000 10.000000 
Rope2_Seg01 0.000000 0.000000 0.000000 0.000000 0.000000 0.000000 10.000000 
Rope2_Seg02 0.000000 0.000000 0.000000 0.000000 0.000000 0.000000 10.000000 
Rope2_Seg03 0.000000 0.000000 0.000000 0.000000 0.000000 0.000000 10.000000 
Rope2_Seg04 0.000000 0.000000 0.000000 0.000000 0.000000 0.000000 10.000000 
Rope2_Seg05 0.000000 0.000000 0.000000 0.000000 0.000000 0.000000 10.000000 
Rope2_Seg06 0.000000 0.000000 0.000000 0.000000 0.000000 0.000000 10.000000 
Rope2_Seg07 0.000000 0.000000 0.000000 0.000000 0.000000 0.000000 10.000000 
Rope2_Seg09 0.000000 0.000000 0.000000 0.000000 0.000000 0.000000 10.000000 
R_mid_hand01 0.000000 0.000000 0.000000 0.000000 0.000000 0.000000 10.000000 
R_mid_hand02 0.000000 0.000000 0.000000 0.000000 0.000000 0.000000 10.000000 
R_mid_hand03 0.000000 0.000000 0.000000 0.000000 0.000000 0.000000 10.000000 
spine02 0.000000 0.000000 0.000000 0.000000 0.000000 0.000000 10.000000 
spine03 0.000000 0.000000 0.000000 0.000000 0.000000 0.000000 10.000000 
pelvis 0.000000 0.000000 0.000000 0.000000 0.000000 0.000000 10.000000 
null_rope03_connect 0.000000 0.000000 0.000000 0.000000 0.000000 0.000000 10.000000 
null_rope04_connect 0.000000 0.000000 0.000000 0.000000 0.000000 0.000000 10.000000 
Rope3_Seg01 0.000000 0.000000 0.000000 0.000000 0.000000 0.000000 10.000000 
Rope3_Seg02 0.000000 0.000000 0.000000 0.000000 0.000000 0.000000 10.000000 
Rope3_Seg03 0.000000 0.000000 0.000000 0.000000 0.000000 0.000000 10.000000 
Rope3_Seg04 0.000000 0.000000 0.000000 0.000000 0.000000 0.000000 10.000000 
Rope3_Seg05 0.000000 0.000000 0.000000 0.000000 0.000000 0.000000 10.000000 
Rope3_Seg06 0.000000 0.000000 0.000000 0.000000 0.000000 0.000000 10.000000 
Rope3_Seg07 0.000000 0.000000 0.000000 0.000000 0.000000 0.000000 10.000000 
Rope3_Seg08 0.000000 0.000000 0.000000 0.000000 0.000000 0.000000 10.000000 
Rope3_Seg09 0.000000 0.000000 0.000000 0.000000 0.000000 0.000000 10.000000 
R_rear_hand01 0.000000 0.000000 0.000000 0.000000 0.000000 0.000000 10.000000 
R_rear_hand02 0.000000 0.000000 0.000000 0.000000 0.000000 0.000000 10.000000 
R_rear_hand03 0.000000 0.000000 0.000000 0.000000 0.000000 0.000000 10.000000 
Rope4_Seg01 0.000000 0.000000 0.000000 0.000000 0.000000 0.000000 10.000000 
Rope4_Seg02 0.000000 0.000000 0.000000 0.000000 0.000000 0.000000 10.000000 
Rope4_Seg03 0.000000 0.000000 0.000000 0.000000 0.000000 0.000000 10.000000 
Rope4_Seg04 0.000000 0.000000 0.000000 0.000000 0.000000 0.000000 10.000000 
Rope4_Seg05 0.000000 0.000000 0.000000 0.000000 0.000000 0.000000 10.000000 
Rope4_Seg06 0.000000 0.000000 0.000000 0.000000 0.000000 0.000000 10.000000 
Rope4_Seg07 0.000000 0.000000 0.000000 0.000000 0.000000 0.000000 10.000000 
Rope4_Seg08 0.000000 0.000000 0.000000 0.000000 0.000000 0.000000 10.000000 
Rope4_Seg09 0.000000 0.000000 0.000000 0.000000 0.000000 0.000000 10.000000 
L_rear_hand01 0.000000 0.000000 0.000000 0.000000 0.000000 0.000000 10.000000 
L_rear_hand02 0.000000 0.000000 0.000000 0.000000 0.000000 0.000000 10.000000 
L_rear_hand03 0.000000 0.000000 0.000000 0.000000 0.000000 0.000000 10.000000 
#Beginning of Data. Separated by tabs
#Fr	Tx	Ty	Tz	Rx	Ry	Rz	SF
[MASTER]
9 2772.649658 0.000419 0.000000 0.001806 0.001499 10.625373 2772.649902
10 3028.353271 0.000457 0.000000 0.001822 0.001480 11.813089 3028.353271
[root]
9 -56.523388 -62.923313 858.760864 -74.757568 -39.215164 -104.758522 862.916199
10 -70.360107 -63.017273 861.481079 -77.514793 -41.102272 -103.434067 866.643738
[chest]
9 -84.512650 -34.090519 0.000000 -3.791877 27.356421 -176.248505 91.129311
10 -84.512650 -34.090519 0.000000 -2.908514 24.440113 -175.689789 91.129311
[L_mid_tent01]
9 27.299557 22.177504 -249.918030 0.260891 2.034602 42.706337 252.380920
10 27.299572 22.177504 -249.918045 0.203817 8.393601 43.464516 252.380936
[R_mid_tent01]
9 23.228794 24.509907 226.238495 169.603806 -10.188788 83.155884 228.744751
10 23.228794 24.509907 226.238495 165.495895 -11.940834 85.529449 228.744751
[spine01]
9 -0.361383 -0.195265 0.000000 0.524183 0.440559 14.005369 0.410763
10 -0.361383 -0.195265 0.000000 0.452653 0.433935 13.780910 0.410763
[Bip01_Neck]
9 165.484543 71.581718 0.000119 175.896118 1.177290 24.871183 180.302734
10 165.484543 71.581718 0.000119 175.896118 1.177290 24.871183 180.302734
[L_humerus]
9 -13.983130 -135.272980 -120.471481 -165.890228 81.433655 -79.947014 181.680161
10 -13.983130 -135.272980 -120.471481 -169.032028 81.514923 -82.546883 181.680161
[R_humerus]
9 -13.983309 -135.273102 125.287651 -169.658447 -69.449860 -94.926353 184.909012
10 -13.983309 -135.273102 125.287651 -168.258591 -69.404243 -95.806274 184.909012
[weapon_bone]
9 235.964890 -300.705902 0.000000 0.000000 -89.951546 -128.212341 382.234833
10 235.964890 -300.705902 0.000000 0.000000 -89.951546 -128.212341 382.234833
[Bip01_Head]
9 256.204315 107.762924 -23.126848 1.133872 5.245839 -68.087662 278.905640
10 256.148895 99.064217 -16.978455 1.091427 4.910107 -69.414391 275.162231
[eye_left_bone]
9 -24.626970 125.451866 -64.772606 0.000000 -90.000000 -99.840431 143.318359
10 -24.626970 125.451866 -64.772606 0.000000 -90.000000 -99.840431 143.318359
[eye_right_bone]
9 -24.626970 125.451866 64.327362 0.000000 -89.972023 80.159393 143.117676
10 -24.626970 125.451866 64.327362 0.000000 -89.960434 80.159386 143.117676
[L_forearm]
9 322.776093 0.000000 -0.000119 0.000458 0.002302 -67.500595 322.776093
10 322.776093 0.000000 -0.000119 0.000423 0.002309 -69.213181 322.776093
[L_front_hand]
9 241.149185 -0.042021 -3.300071 -179.306366 -2.158814 -9.227046 241.171753
10 241.149185 -0.042021 -3.300071 -179.154297 -2.104219 -13.270760 241.171753
[L_weapon_bone]
9 156.183838 0.000000 0.000000 0.002109 0.001031 37.895000 156.183838
10 156.183838 0.000000 0.000000 0.002088 0.001071 35.685062 156.183838
[L_front_hand01_01]
9 86.095154 20.947098 -0.655860 0.405585 -0.442306 -4.620490 88.609184
10 86.095154 20.947098 -0.655860 0.405585 -0.442306 -4.620490 88.609184
[L_front_hand02_01]
9 86.935165 -11.437475 24.513514 116.959450 3.630817 1.495453 91.046425
10 86.935165 -11.437475 24.513514 116.959450 3.630817 1.495453 91.046425
[L_front_hand03_01]
9 86.637497 -14.123976 -20.424902 -118.420113 -4.656303 -0.152527 90.126129
10 86.637497 -14.123976 -20.424902 -118.420097 -4.656303 -0.152527 90.126129
[L_front_hand01_02]
9 71.020905 -0.000179 0.000030 0.001534 0.001777 -8.378851 71.020905
10 71.020905 -0.000179 0.000030 0.001534 0.001777 -8.378848 71.020905
[L_front_hand02_02]
9 71.020927 -0.000119 0.000060 0.001534 0.001777 -8.378851 71.020927
10 71.020927 -0.000119 0.000060 0.001534 0.001777 -8.378848 71.020927
[L_front_hand03_02]
9 71.020905 -0.000060 0.000060 0.001534 0.001777 -8.378851 71.020905
10 71.020905 -0.000060 0.000060 0.001534 0.001777 -8.378848 71.020905
[R_forearm]
9 322.776428 -0.000060 0.000030 0.200274 -0.074073 -70.789833 322.776428
10 322.776428 -0.000060 0.000030 0.200051 -0.074672 -70.447044 322.776428
[R_front_hand]
9 238.847015 -0.006795 2.210259 -0.866881 1.492587 -18.785337 238.857239
10 238.847015 -0.006795 2.210259 -1.113760 1.320242 -28.792967 238.857239
[R_weapon_bone]
9 155.664093 0.002503 -0.000030 0.002747 0.002450 -137.059357 155.664078
10 155.664093 0.002503 -0.000030 0.002764 0.002431 -136.282410 155.664078
[R_front_hand01_01]
9 87.624611 14.231146 22.918642 -116.960213 3.496675 -1.324139 91.683487
10 87.624611 14.231146 22.918642 -116.960213 3.496675 -1.324139 91.683487
[R_front_hand02_01]
9 89.356956 14.367283 -19.491137 118.419647 -4.257089 0.609827 92.579636
10 89.356956 14.367283 -19.491137 118.419647 -4.257089 0.609827 92.579636
[R_front_hand03_01]
9 87.286232 -22.307278 -0.143439 -0.387970 -0.231462 4.232001 90.091743
10 87.286232 -22.307278 -0.143439 -0.387970 -0.231462 4.232001 90.091743
[R_front_hand01_02]
9 71.020905 0.000060 0.000119 0.001777 0.001534 8.377220 71.020905
10 71.020905 0.000060 0.000119 0.001777 0.001534 8.377220 71.020905
[R_front_hand02_02]
9 71.020844 -0.000030 -0.000119 0.001777 0.001534 8.377220 71.020836
10 71.020844 -0.000030 -0.000119 0.001777 0.001534 8.377220 71.020836
[R_front_hand03_02]
9 71.020905 0.000000 0.000030 0.001777 0.001534 8.377220 71.020905
10 71.020905 0.000000 0.000030 0.001777 0.001534 8.377220 71.020905
[null_rope01_connect]
9 328.732483 0.000000 -0.000238 16.360584 -77.566254 70.362129 328.732483
10 328.732483 0.000000 -0.000238 -11.182484 -80.588043 98.289734 328.732483
[Rope1_Seg01]
9 0.000000 0.000000 0.000000 128.551270 22.568420 -143.358307 0.000000
10 0.000000 0.000000 0.000000 138.002075 26.722561 -145.973099 0.000000
[Rope1_Seg02]
9 139.999863 -0.000179 0.000000 1.074340 -4.071540 3.670942 139.999863
10 139.999863 -0.000179 0.000000 -0.143180 -3.774817 4.243155 139.999863
[Rope1_Seg03]
9 139.999924 0.000060 -0.000060 0.757729 -5.340601 5.037978 139.999924
10 139.999924 0.000060 -0.000060 -0.261049 -5.117139 5.763427 139.999924
[Rope1_Seg04]
9 139.999924 -0.000060 -0.000119 -1.364260 -5.880775 7.927705 139.999924
10 139.999924 -0.000060 -0.000119 -2.237108 -5.053350 8.421176 139.999924
[Rope1_Seg05]
9 139.999832 0.000119 -0.000060 -1.405500 -8.621966 10.966615 139.999832
10 139.999832 0.000119 -0.000060 -1.426332 -8.902314 11.327647 139.999832
[Rope1_Seg06]
9 139.999954 0.000119 -0.000060 4.144139 -15.336145 2.644715 139.999954
10 139.999954 0.000119 -0.000060 2.627008 -17.808447 5.731925 139.999954
[Rope1_Seg07]
9 139.999985 0.000060 0.000000 2.179715 -10.216006 -0.034292 139.999985
10 139.999985 0.000060 0.000000 0.641483 -10.481030 2.664743 139.999985
[Rope1_Seg09]
9 121.602913 0.000119 -0.000089 -89.793175 -1.359789 0.847147 121.602913
10 121.602913 0.000119 -0.000089 -89.793175 -1.359789 0.847147 121.602913
[L_mid_hand01]
9 103.859421 1.038730 8.195221 104.352036 0.341432 -0.444596 104.187431
10 103.859421 1.038730 8.195221 104.352036 0.341479 -0.444583 104.187431
[L_mid_hand02]
9 105.572853 -4.139662 -10.864139 -135.608444 3.905721 -3.381091 106.211075
10 105.572853 -4.139662 -10.864139 -135.608444 3.905687 -3.381056 106.211075
[L_mid_hand03]
9 104.641464 17.579376 -3.913581 -18.761518 -0.324345 2.942958 106.179977
10 104.641464 17.579376 -3.913581 -18.761518 -0.324361 2.942912 106.179977
[null_rope02_connect]
9 328.732849 0.000179 -0.000119 -118.234390 67.125458 12.801781 328.732849
10 328.732849 0.000179 -0.000119 -104.812653 63.921803 26.265022 328.732849
[Rope2_Seg01]
9 -0.000064 0.000134 0.000153 -69.669571 23.020329 -14.723437 0.000213
10 -0.000063 0.000134 0.000153 -63.298027 20.008545 -13.722861 0.000212
[Rope2_Seg02]
9 139.999741 -0.000060 -0.000119 -5.911677 -14.357606 10.967666 139.999756
10 139.999741 -0.000060 -0.000119 -9.822404 -13.360150 14.297341 139.999756
[Rope2_Seg03]
9 140.000107 0.000030 0.000000 -3.746545 -23.305111 13.263436 140.000107
10 140.000107 0.000030 0.000000 -6.676387 -24.263918 18.198534 140.000107
[Rope2_Seg04]
9 139.999802 0.000000 -0.000060 -1.590521 -18.495712 9.265183 139.999802
10 139.999802 0.000000 -0.000060 -2.286653 -18.931046 12.557026 139.999802
[Rope2_Seg05]
9 139.999985 -0.000060 0.000119 -0.826234 -22.484480 26.720150 139.999985
10 139.999985 -0.000060 0.000119 1.524847 -21.791656 26.470140 139.999985
[Rope2_Seg06]
9 139.999893 -0.000030 -0.000119 18.064817 -18.372458 27.716234 139.999893
10 139.999893 -0.000030 -0.000119 19.258432 -15.126096 24.011703 139.999893
[Rope2_Seg07]
9 139.999893 0.000060 -0.000060 17.201994 -3.052364 10.957151 139.999893
10 139.999893 0.000060 -0.000060 16.498667 -2.362596 10.019977 139.999893
[Rope2_Seg09]
9 121.338966 0.000089 -0.000060 33.793236 -1.359788 -0.847141 121.338966
10 121.338966 0.000089 -0.000060 33.793236 -1.359788 -0.847141 121.338966
[R_mid_hand01]
9 104.680779 11.144459 -10.335981 -47.384243 2.963556 5.452635 105.778534
10 104.680779 11.144459 -10.335981 -47.375107 3.181660 5.654842 105.778534
[R_mid_hand02]
9 104.070427 2.443552 8.231699 75.626305 -2.250047 1.111105 104.424065
10 104.070427 2.443552 8.231699 75.620827 -2.540148 1.186644 104.424065
[R_mid_hand03]
9 106.028137 -11.221827 -5.996406 -164.381927 2.495996 -6.140564 106.788818
10 106.028137 -11.221827 -5.996406 -164.395157 2.574564 -6.425120 106.788818
[spine02]
9 129.756927 0.001550 0.000119 -0.202516 -4.183956 -5.052933 129.756927
10 129.756927 0.001550 0.000119 -0.189945 -4.171528 -5.209438 129.756927
[spine03]
9 78.718643 0.068932 -3.874970 1.187631 2.530939 3.278614 78.813980
10 78.740517 0.065117 -3.661499 1.304454 2.155278 4.771613 78.825623
[pelvis]
9 169.435242 0.051022 0.000000 162.909256 8.463766 13.400230 169.435257
10 169.435242 0.051022 0.000000 144.585770 11.625909 11.932493 169.435257
[null_rope03_connect]
9 -1.257226 -2.466202 137.391083 64.694176 84.562386 142.204254 137.418976
10 -1.257226 -2.466202 137.391083 27.521303 65.681671 104.463997 137.418976
[null_rope04_connect]
9 -1.259640 -2.480268 -137.844437 64.694176 84.562386 142.204254 137.872513
10 -1.259640 -2.480268 -137.844437 27.521303 65.681671 104.463997 137.872513
[Rope3_Seg01]
9 0.000000 0.000000 0.000000 -114.153862 -7.518693 -130.082657 0.000000
10 0.000000 0.000000 0.000000 -101.519234 -20.450006 -133.899643 0.000000
[Rope3_Seg02]
9 139.999924 -0.000119 0.000060 28.346796 22.044201 19.291647 139.999924
10 139.999924 -0.000119 0.000060 29.730373 27.932024 5.624175 139.999924
[Rope3_Seg03]
9 139.999924 -0.000119 0.000119 110.245926 23.426744 12.319452 139.999924
10 139.999924 -0.000119 0.000119 33.257000 21.228128 -2.114296 139.999924
[Rope3_Seg04]
9 139.999924 0.000119 0.000000 13.455981 -10.735111 -34.356621 139.999924
10 139.999924 0.000119 0.000000 22.816959 13.059020 -28.116041 139.999924
[Rope3_Seg05]
9 139.999924 -0.000238 0.000060 1.676697 -12.706346 -18.195320 139.999924
10 139.999924 -0.000238 0.000060 6.056099 -3.217831 -26.708902 139.999924
[Rope3_Seg06]
9 139.999893 -0.000119 -0.000060 0.656746 -3.476892 -5.745536 139.999893
10 139.999893 -0.000119 -0.000060 1.051929 -1.409198 -8.363016 139.999893
[Rope3_Seg07]
9 139.999771 0.000060 -0.000119 0.589114 -2.025020 -3.278843 139.999771
10 139.999771 0.000060 -0.000119 0.632670 -0.809763 -4.539374 139.999771
[Rope3_Seg08]
9 139.999985 -0.000060 0.000000 0.564479 -1.161572 -1.844049 139.999985
10 139.999985 -0.000060 0.000000 0.536547 -0.476249 -2.528069 139.999985
[Rope3_Seg09]
9 90.185997 -0.000179 -0.000060 89.793228 -1.359877 -0.847183 90.185997
10 90.185997 -0.000179 -0.000060 89.793228 -1.359877 -0.847183 90.185997
[R_rear_hand01]
9 103.366196 -6.073594 -10.757982 -166.970291 21.129854 -46.704182 104.101845
10 103.366196 -6.073594 -10.757982 -164.449982 19.387613 -39.430145 104.101845
[R_rear_hand02]
9 100.509819 12.039542 -7.992327 -28.148870 27.804201 44.102722 101.543350
10 100.509819 12.039542 -7.992327 -31.145708 24.319061 37.292130 101.543350
[R_rear_hand03]
9 101.539970 5.215704 5.435467 81.628380 -47.127724 10.016966 101.819031
10 101.539970 5.215704 5.435467 82.550941 -40.154560 8.684566 101.819031
[Rope4_Seg01]
9 -0.000016 -0.000052 -0.000153 43.613194 3.052385 -58.919132 0.000162
10 -0.000016 -0.000049 -0.000153 42.343010 0.705962 -61.367264 0.000161
[Rope4_Seg02]
9 139.999985 0.000060 0.000119 -6.654589 17.352242 14.972529 139.999985
10 139.999985 0.000060 0.000119 -4.170126 15.647460 13.078160 139.999985
[Rope4_Seg03]
9 139.999924 0.000000 -0.000238 -95.296280 19.588755 21.813734 139.999924
10 139.999924 0.000000 -0.000238 -65.768913 20.481539 21.715485 139.999924
[Rope4_Seg04]
9 139.999985 0.000000 0.000119 -44.673721 -13.033729 10.958649 139.999985
10 139.999985 0.000000 0.000119 -70.630737 -8.841908 19.986746 139.999985
[Rope4_Seg05]
9 139.999802 -0.000060 -0.000119 -0.933700 -14.268094 -6.000247 139.999802
10 139.999802 -0.000060 -0.000119 -10.201309 -25.791956 -2.226193 139.999802
[Rope4_Seg06]
9 139.999924 0.000000 0.000060 5.345815 -24.542637 -16.447384 139.999924
10 139.999924 0.000000 0.000060 -1.078916 -22.095259 -6.453342 139.999924
[Rope4_Seg07]
9 139.999802 0.000000 0.000000 2.183104 -19.504438 -11.074725 139.999802
10 139.999802 0.000000 0.000000 0.013820 -10.248449 -3.292171 139.999802
[Rope4_Seg08]
9 139.999924 0.000000 0.000119 -1.089115 -9.000901 -4.622105 139.999924
10 139.999924 0.000000 0.000119 -1.460008 -5.260365 -1.703903 139.999924
[Rope4_Seg09]
9 90.185791 0.000060 0.000060 -135.617828 2.228885 0.850567 90.185791
10 90.185791 0.000060 0.000060 -135.617828 2.228885 0.850567 90.185791
[L_rear_hand01]
9 101.696655 -8.392275 -7.654577 -27.705481 -28.251705 134.947800 102.329041
10 101.696655 -8.392275 -7.654577 -31.051279 -24.449524 142.474380 102.329041
[L_rear_hand02]
9 102.726799 -1.568258 5.773216 81.477219 48.065086 169.775513 102.900848
10 102.726799 -1.568258 5.773216 82.520493 40.398952 171.273941 102.900848
[L_rear_hand03]
9 104.552910 9.721220 -10.420293 -167.330078 -21.338425 -132.303940 105.519653
10 104.552910 9.721220 -10.420293 -164.531235 -19.454706 -140.315262 105.519653
